# xmcd
#
# Track frame offsets:
#	150
#	22400
#	48331
#	67820
#	92256
#	118839
#	142988
#	165016
#	187710
#	204684
#
# Disc length: 3137 seconds
#
# Revision: 1
# Processed by: cddbd v1.5.2PL0 Copyright (c) Steve Scherf et al.
# Submitted via: audiograbber 1.83.01
#
DISCID=790c3f0a
DTITLE=The Wheel - The Wheel
DYEAR=2011
DGENRE=Bluesrock
TTITLE0=Stand Up!
TTITLE1=Into The Water
TTITLE2=Love
TTITLE3=Tellin No Lies
TTITLE4=Sparks
TTITLE5=Lost Soul
TTITLE6=Comin'on
TTITLE7=Walk On Out
TTITLE8=Cry Of The Night
TTITLE9=All This Time
EXTD=
EXTT0=
EXTT1=
EXTT2=
EXTT3=
EXTT4=
EXTT5=
EXTT6=
EXTT7=
EXTT8=
EXTT9=
PLAYORDER=
